<mxfile host="app.diagrams.net" modified="2021-05-13T02:25:56.844Z" agent="5.0 (Windows NT 10.0; WOW64) AppleWebKit/537.36 (KHTML, like Gecko) Chrome/75.0.3770.100 Safari/537.36" etag="Ikb9hTArXY-2h_h1Z6V4" version="14.4.8" type="github">
  <diagram id="vhQR2aSMouCn7lWunfrm" name="Page-1">
    <mxGraphModel dx="1863" dy="536" grid="1" gridSize="10" guides="1" tooltips="1" connect="1" arrows="1" fold="1" page="1" pageScale="1" pageWidth="827" pageHeight="1169" math="0" shadow="0">
      <root>
        <mxCell id="0" />
        <mxCell id="1" parent="0" />
        <mxCell id="lIQEyv82AW77uc3gjlRO-74" value="" style="group" vertex="1" connectable="0" parent="1">
          <mxGeometry x="-10" y="120" width="810" height="340" as="geometry" />
        </mxCell>
        <mxCell id="lIQEyv82AW77uc3gjlRO-1" value="&lt;font style=&quot;font-size: 20px&quot;&gt;[CLS]&lt;/font&gt;" style="rounded=0;whiteSpace=wrap;html=1;" vertex="1" parent="lIQEyv82AW77uc3gjlRO-74">
          <mxGeometry x="150" width="60" height="50" as="geometry" />
        </mxCell>
        <mxCell id="lIQEyv82AW77uc3gjlRO-2" value="&lt;font style=&quot;font-size: 20px&quot;&gt;today&lt;/font&gt;" style="rounded=0;whiteSpace=wrap;html=1;" vertex="1" parent="lIQEyv82AW77uc3gjlRO-74">
          <mxGeometry x="220" width="60" height="50" as="geometry" />
        </mxCell>
        <mxCell id="lIQEyv82AW77uc3gjlRO-3" value="&lt;font style=&quot;font-size: 20px&quot;&gt;[SEP]&lt;/font&gt;" style="rounded=0;whiteSpace=wrap;html=1;" vertex="1" parent="lIQEyv82AW77uc3gjlRO-74">
          <mxGeometry x="290" width="60" height="50" as="geometry" />
        </mxCell>
        <mxCell id="lIQEyv82AW77uc3gjlRO-4" value="&lt;span style=&quot;font-size: 20px&quot;&gt;I&lt;/span&gt;" style="rounded=0;whiteSpace=wrap;html=1;" vertex="1" parent="lIQEyv82AW77uc3gjlRO-74">
          <mxGeometry x="360" width="60" height="50" as="geometry" />
        </mxCell>
        <mxCell id="lIQEyv82AW77uc3gjlRO-5" value="&lt;font style=&quot;font-size: 20px&quot;&gt;want&lt;/font&gt;" style="rounded=0;whiteSpace=wrap;html=1;" vertex="1" parent="lIQEyv82AW77uc3gjlRO-74">
          <mxGeometry x="430" width="60" height="50" as="geometry" />
        </mxCell>
        <mxCell id="lIQEyv82AW77uc3gjlRO-6" value="&lt;font style=&quot;font-size: 20px&quot;&gt;to&lt;/font&gt;" style="rounded=0;whiteSpace=wrap;html=1;" vertex="1" parent="lIQEyv82AW77uc3gjlRO-74">
          <mxGeometry x="500" width="60" height="50" as="geometry" />
        </mxCell>
        <mxCell id="lIQEyv82AW77uc3gjlRO-7" value="&lt;font style=&quot;font-size: 20px&quot;&gt;play&lt;/font&gt;" style="rounded=0;whiteSpace=wrap;html=1;" vertex="1" parent="lIQEyv82AW77uc3gjlRO-74">
          <mxGeometry x="570" width="60" height="50" as="geometry" />
        </mxCell>
        <mxCell id="lIQEyv82AW77uc3gjlRO-8" value="&lt;font style=&quot;font-size: 20px&quot;&gt;basketball&lt;/font&gt;" style="rounded=0;whiteSpace=wrap;html=1;" vertex="1" parent="lIQEyv82AW77uc3gjlRO-74">
          <mxGeometry x="640" width="100" height="50" as="geometry" />
        </mxCell>
        <mxCell id="lIQEyv82AW77uc3gjlRO-9" value="&lt;font style=&quot;font-size: 20px&quot;&gt;[SEP]&lt;/font&gt;" style="rounded=0;whiteSpace=wrap;html=1;" vertex="1" parent="lIQEyv82AW77uc3gjlRO-74">
          <mxGeometry x="750" width="60" height="50" as="geometry" />
        </mxCell>
        <mxCell id="lIQEyv82AW77uc3gjlRO-10" value="&lt;font style=&quot;font-size: 18px&quot;&gt;E&lt;sub&gt;[CLS]&lt;/sub&gt;&lt;/font&gt;" style="rounded=0;whiteSpace=wrap;html=1;fontSize=18;" vertex="1" parent="lIQEyv82AW77uc3gjlRO-74">
          <mxGeometry x="150" y="110" width="60" height="50" as="geometry" />
        </mxCell>
        <mxCell id="lIQEyv82AW77uc3gjlRO-37" style="edgeStyle=orthogonalEdgeStyle;rounded=0;orthogonalLoop=1;jettySize=auto;html=1;exitX=0.5;exitY=1;exitDx=0;exitDy=0;entryX=0.5;entryY=0;entryDx=0;entryDy=0;fontSize=18;" edge="1" parent="lIQEyv82AW77uc3gjlRO-74" source="lIQEyv82AW77uc3gjlRO-1" target="lIQEyv82AW77uc3gjlRO-10">
          <mxGeometry relative="1" as="geometry" />
        </mxCell>
        <mxCell id="lIQEyv82AW77uc3gjlRO-11" value="&lt;font style=&quot;font-size: 18px&quot;&gt;E&lt;sub&gt;today&lt;/sub&gt;&lt;/font&gt;" style="rounded=0;whiteSpace=wrap;html=1;fontSize=18;" vertex="1" parent="lIQEyv82AW77uc3gjlRO-74">
          <mxGeometry x="220" y="110" width="60" height="50" as="geometry" />
        </mxCell>
        <mxCell id="lIQEyv82AW77uc3gjlRO-38" style="edgeStyle=orthogonalEdgeStyle;rounded=0;orthogonalLoop=1;jettySize=auto;html=1;exitX=0.5;exitY=1;exitDx=0;exitDy=0;entryX=0.5;entryY=0;entryDx=0;entryDy=0;fontSize=18;" edge="1" parent="lIQEyv82AW77uc3gjlRO-74" source="lIQEyv82AW77uc3gjlRO-2" target="lIQEyv82AW77uc3gjlRO-11">
          <mxGeometry relative="1" as="geometry" />
        </mxCell>
        <mxCell id="lIQEyv82AW77uc3gjlRO-12" value="&lt;font style=&quot;font-size: 18px&quot;&gt;E&lt;sub&gt;[SEP]&lt;/sub&gt;&lt;/font&gt;" style="rounded=0;whiteSpace=wrap;html=1;fontSize=18;" vertex="1" parent="lIQEyv82AW77uc3gjlRO-74">
          <mxGeometry x="290" y="110" width="60" height="50" as="geometry" />
        </mxCell>
        <mxCell id="lIQEyv82AW77uc3gjlRO-39" style="edgeStyle=orthogonalEdgeStyle;rounded=0;orthogonalLoop=1;jettySize=auto;html=1;exitX=0.5;exitY=1;exitDx=0;exitDy=0;entryX=0.5;entryY=0;entryDx=0;entryDy=0;fontSize=18;" edge="1" parent="lIQEyv82AW77uc3gjlRO-74" source="lIQEyv82AW77uc3gjlRO-3" target="lIQEyv82AW77uc3gjlRO-12">
          <mxGeometry relative="1" as="geometry" />
        </mxCell>
        <mxCell id="lIQEyv82AW77uc3gjlRO-13" value="&lt;span style=&quot;font-size: 18px&quot;&gt;E&lt;sub&gt;I&lt;/sub&gt;&lt;/span&gt;" style="rounded=0;whiteSpace=wrap;html=1;fontSize=18;" vertex="1" parent="lIQEyv82AW77uc3gjlRO-74">
          <mxGeometry x="360" y="110" width="60" height="50" as="geometry" />
        </mxCell>
        <mxCell id="lIQEyv82AW77uc3gjlRO-40" style="edgeStyle=orthogonalEdgeStyle;rounded=0;orthogonalLoop=1;jettySize=auto;html=1;exitX=0.5;exitY=1;exitDx=0;exitDy=0;entryX=0.5;entryY=0;entryDx=0;entryDy=0;fontSize=18;" edge="1" parent="lIQEyv82AW77uc3gjlRO-74" source="lIQEyv82AW77uc3gjlRO-4" target="lIQEyv82AW77uc3gjlRO-13">
          <mxGeometry relative="1" as="geometry" />
        </mxCell>
        <mxCell id="lIQEyv82AW77uc3gjlRO-14" value="&lt;font style=&quot;font-size: 18px&quot;&gt;E&lt;sub&gt;want&lt;/sub&gt;&lt;/font&gt;" style="rounded=0;whiteSpace=wrap;html=1;fontSize=18;" vertex="1" parent="lIQEyv82AW77uc3gjlRO-74">
          <mxGeometry x="430" y="110" width="60" height="50" as="geometry" />
        </mxCell>
        <mxCell id="lIQEyv82AW77uc3gjlRO-41" style="edgeStyle=orthogonalEdgeStyle;rounded=0;orthogonalLoop=1;jettySize=auto;html=1;exitX=0.5;exitY=1;exitDx=0;exitDy=0;entryX=0.5;entryY=0;entryDx=0;entryDy=0;fontSize=18;" edge="1" parent="lIQEyv82AW77uc3gjlRO-74" source="lIQEyv82AW77uc3gjlRO-5" target="lIQEyv82AW77uc3gjlRO-14">
          <mxGeometry relative="1" as="geometry" />
        </mxCell>
        <mxCell id="lIQEyv82AW77uc3gjlRO-15" value="&lt;font style=&quot;font-size: 18px&quot;&gt;E&lt;sub&gt;to&lt;/sub&gt;&lt;/font&gt;" style="rounded=0;whiteSpace=wrap;html=1;fontSize=18;" vertex="1" parent="lIQEyv82AW77uc3gjlRO-74">
          <mxGeometry x="500" y="110" width="60" height="50" as="geometry" />
        </mxCell>
        <mxCell id="lIQEyv82AW77uc3gjlRO-42" style="edgeStyle=orthogonalEdgeStyle;rounded=0;orthogonalLoop=1;jettySize=auto;html=1;exitX=0.5;exitY=1;exitDx=0;exitDy=0;entryX=0.5;entryY=0;entryDx=0;entryDy=0;fontSize=18;" edge="1" parent="lIQEyv82AW77uc3gjlRO-74" source="lIQEyv82AW77uc3gjlRO-6" target="lIQEyv82AW77uc3gjlRO-15">
          <mxGeometry relative="1" as="geometry" />
        </mxCell>
        <mxCell id="lIQEyv82AW77uc3gjlRO-16" value="&lt;font style=&quot;font-size: 18px&quot;&gt;E&lt;sub&gt;play&lt;/sub&gt;&lt;/font&gt;" style="rounded=0;whiteSpace=wrap;html=1;fontSize=18;" vertex="1" parent="lIQEyv82AW77uc3gjlRO-74">
          <mxGeometry x="570" y="110" width="60" height="50" as="geometry" />
        </mxCell>
        <mxCell id="lIQEyv82AW77uc3gjlRO-43" style="edgeStyle=orthogonalEdgeStyle;rounded=0;orthogonalLoop=1;jettySize=auto;html=1;exitX=0.5;exitY=1;exitDx=0;exitDy=0;entryX=0.5;entryY=0;entryDx=0;entryDy=0;fontSize=18;" edge="1" parent="lIQEyv82AW77uc3gjlRO-74" source="lIQEyv82AW77uc3gjlRO-7" target="lIQEyv82AW77uc3gjlRO-16">
          <mxGeometry relative="1" as="geometry" />
        </mxCell>
        <mxCell id="lIQEyv82AW77uc3gjlRO-17" value="&lt;font style=&quot;font-size: 18px&quot;&gt;E&lt;sub&gt;basketball&lt;/sub&gt;&lt;/font&gt;" style="rounded=0;whiteSpace=wrap;html=1;fontSize=18;" vertex="1" parent="lIQEyv82AW77uc3gjlRO-74">
          <mxGeometry x="640" y="110" width="100" height="50" as="geometry" />
        </mxCell>
        <mxCell id="lIQEyv82AW77uc3gjlRO-44" style="edgeStyle=orthogonalEdgeStyle;rounded=0;orthogonalLoop=1;jettySize=auto;html=1;exitX=0.5;exitY=1;exitDx=0;exitDy=0;entryX=0.5;entryY=0;entryDx=0;entryDy=0;fontSize=18;" edge="1" parent="lIQEyv82AW77uc3gjlRO-74" source="lIQEyv82AW77uc3gjlRO-8" target="lIQEyv82AW77uc3gjlRO-17">
          <mxGeometry relative="1" as="geometry" />
        </mxCell>
        <mxCell id="lIQEyv82AW77uc3gjlRO-18" value="&lt;font style=&quot;font-size: 18px&quot;&gt;E&lt;sub&gt;[SEP]&lt;/sub&gt;&lt;/font&gt;" style="rounded=0;whiteSpace=wrap;html=1;fontSize=18;" vertex="1" parent="lIQEyv82AW77uc3gjlRO-74">
          <mxGeometry x="750" y="110" width="60" height="50" as="geometry" />
        </mxCell>
        <mxCell id="lIQEyv82AW77uc3gjlRO-45" style="edgeStyle=orthogonalEdgeStyle;rounded=0;orthogonalLoop=1;jettySize=auto;html=1;exitX=0.5;exitY=1;exitDx=0;exitDy=0;entryX=0.5;entryY=0;entryDx=0;entryDy=0;fontSize=18;" edge="1" parent="lIQEyv82AW77uc3gjlRO-74" source="lIQEyv82AW77uc3gjlRO-9" target="lIQEyv82AW77uc3gjlRO-18">
          <mxGeometry relative="1" as="geometry" />
        </mxCell>
        <mxCell id="lIQEyv82AW77uc3gjlRO-19" value="&lt;font style=&quot;font-size: 18px&quot;&gt;E&lt;/font&gt;&lt;font style=&quot;font-size: 15px&quot;&gt;A&lt;/font&gt;" style="rounded=0;whiteSpace=wrap;html=1;fontSize=18;" vertex="1" parent="lIQEyv82AW77uc3gjlRO-74">
          <mxGeometry x="150" y="200" width="60" height="50" as="geometry" />
        </mxCell>
        <mxCell id="lIQEyv82AW77uc3gjlRO-20" value="&lt;font style=&quot;font-size: 18px&quot;&gt;E&lt;sub&gt;A&lt;/sub&gt;&lt;/font&gt;" style="rounded=0;whiteSpace=wrap;html=1;fontSize=18;" vertex="1" parent="lIQEyv82AW77uc3gjlRO-74">
          <mxGeometry x="220" y="200" width="60" height="50" as="geometry" />
        </mxCell>
        <mxCell id="lIQEyv82AW77uc3gjlRO-21" value="&lt;font style=&quot;font-size: 18px&quot;&gt;E&lt;sub&gt;A&lt;/sub&gt;&lt;/font&gt;" style="rounded=0;whiteSpace=wrap;html=1;fontSize=18;" vertex="1" parent="lIQEyv82AW77uc3gjlRO-74">
          <mxGeometry x="290" y="200" width="60" height="50" as="geometry" />
        </mxCell>
        <mxCell id="lIQEyv82AW77uc3gjlRO-22" value="&lt;span style=&quot;font-size: 18px&quot;&gt;E&lt;/span&gt;&lt;sub&gt;&lt;font style=&quot;font-size: 15px&quot;&gt;B&lt;/font&gt;&lt;/sub&gt;" style="rounded=0;whiteSpace=wrap;html=1;fontSize=18;" vertex="1" parent="lIQEyv82AW77uc3gjlRO-74">
          <mxGeometry x="360" y="200" width="60" height="50" as="geometry" />
        </mxCell>
        <mxCell id="lIQEyv82AW77uc3gjlRO-23" value="&lt;font style=&quot;font-size: 18px&quot;&gt;E&lt;/font&gt;&lt;sub&gt;&lt;font style=&quot;font-size: 15px&quot;&gt;B&lt;/font&gt;&lt;/sub&gt;" style="rounded=0;whiteSpace=wrap;html=1;fontSize=18;" vertex="1" parent="lIQEyv82AW77uc3gjlRO-74">
          <mxGeometry x="430" y="200" width="60" height="50" as="geometry" />
        </mxCell>
        <mxCell id="lIQEyv82AW77uc3gjlRO-24" value="&lt;font style=&quot;font-size: 18px&quot;&gt;E&lt;sub&gt;B&lt;/sub&gt;&lt;/font&gt;" style="rounded=0;whiteSpace=wrap;html=1;fontSize=18;" vertex="1" parent="lIQEyv82AW77uc3gjlRO-74">
          <mxGeometry x="500" y="200" width="60" height="50" as="geometry" />
        </mxCell>
        <mxCell id="lIQEyv82AW77uc3gjlRO-25" value="&lt;font style=&quot;font-size: 18px&quot;&gt;E&lt;sub&gt;B&lt;/sub&gt;&lt;/font&gt;" style="rounded=0;whiteSpace=wrap;html=1;fontSize=18;" vertex="1" parent="lIQEyv82AW77uc3gjlRO-74">
          <mxGeometry x="570" y="200" width="60" height="50" as="geometry" />
        </mxCell>
        <mxCell id="lIQEyv82AW77uc3gjlRO-26" value="&lt;font style=&quot;font-size: 18px&quot;&gt;E&lt;sub&gt;B&lt;/sub&gt;&lt;/font&gt;" style="rounded=0;whiteSpace=wrap;html=1;fontSize=18;" vertex="1" parent="lIQEyv82AW77uc3gjlRO-74">
          <mxGeometry x="640" y="200" width="100" height="50" as="geometry" />
        </mxCell>
        <mxCell id="lIQEyv82AW77uc3gjlRO-27" value="&lt;font style=&quot;font-size: 18px&quot;&gt;E&lt;sub&gt;B&lt;/sub&gt;&lt;/font&gt;" style="rounded=0;whiteSpace=wrap;html=1;fontSize=18;" vertex="1" parent="lIQEyv82AW77uc3gjlRO-74">
          <mxGeometry x="750" y="200" width="60" height="50" as="geometry" />
        </mxCell>
        <mxCell id="lIQEyv82AW77uc3gjlRO-28" value="&lt;font style=&quot;font-size: 18px&quot;&gt;E&lt;sub&gt;0&lt;/sub&gt;&lt;/font&gt;" style="rounded=0;whiteSpace=wrap;html=1;fontSize=18;" vertex="1" parent="lIQEyv82AW77uc3gjlRO-74">
          <mxGeometry x="150" y="290" width="60" height="50" as="geometry" />
        </mxCell>
        <mxCell id="lIQEyv82AW77uc3gjlRO-29" value="&lt;font style=&quot;font-size: 18px&quot;&gt;E&lt;sub&gt;1&lt;/sub&gt;&lt;/font&gt;" style="rounded=0;whiteSpace=wrap;html=1;fontSize=18;" vertex="1" parent="lIQEyv82AW77uc3gjlRO-74">
          <mxGeometry x="220" y="290" width="60" height="50" as="geometry" />
        </mxCell>
        <mxCell id="lIQEyv82AW77uc3gjlRO-30" value="&lt;font style=&quot;font-size: 18px&quot;&gt;E&lt;sub&gt;2&lt;/sub&gt;&lt;/font&gt;" style="rounded=0;whiteSpace=wrap;html=1;fontSize=18;" vertex="1" parent="lIQEyv82AW77uc3gjlRO-74">
          <mxGeometry x="290" y="290" width="60" height="50" as="geometry" />
        </mxCell>
        <mxCell id="lIQEyv82AW77uc3gjlRO-31" value="&lt;span style=&quot;font-size: 18px&quot;&gt;E&lt;sub&gt;3&lt;/sub&gt;&lt;/span&gt;" style="rounded=0;whiteSpace=wrap;html=1;fontSize=18;" vertex="1" parent="lIQEyv82AW77uc3gjlRO-74">
          <mxGeometry x="360" y="290" width="60" height="50" as="geometry" />
        </mxCell>
        <mxCell id="lIQEyv82AW77uc3gjlRO-32" value="&lt;font style=&quot;font-size: 18px&quot;&gt;E&lt;sub&gt;4&lt;/sub&gt;&lt;/font&gt;" style="rounded=0;whiteSpace=wrap;html=1;fontSize=18;" vertex="1" parent="lIQEyv82AW77uc3gjlRO-74">
          <mxGeometry x="430" y="290" width="60" height="50" as="geometry" />
        </mxCell>
        <mxCell id="lIQEyv82AW77uc3gjlRO-33" value="&lt;font style=&quot;font-size: 18px&quot;&gt;E&lt;sub&gt;5&lt;/sub&gt;&lt;/font&gt;" style="rounded=0;whiteSpace=wrap;html=1;fontSize=18;" vertex="1" parent="lIQEyv82AW77uc3gjlRO-74">
          <mxGeometry x="500" y="290" width="60" height="50" as="geometry" />
        </mxCell>
        <mxCell id="lIQEyv82AW77uc3gjlRO-34" value="&lt;font style=&quot;font-size: 18px&quot;&gt;E&lt;sub&gt;6&lt;/sub&gt;&lt;/font&gt;" style="rounded=0;whiteSpace=wrap;html=1;fontSize=18;" vertex="1" parent="lIQEyv82AW77uc3gjlRO-74">
          <mxGeometry x="570" y="290" width="60" height="50" as="geometry" />
        </mxCell>
        <mxCell id="lIQEyv82AW77uc3gjlRO-35" value="&lt;font style=&quot;font-size: 18px&quot;&gt;E&lt;sub&gt;7&lt;/sub&gt;&lt;/font&gt;" style="rounded=0;whiteSpace=wrap;html=1;fontSize=18;" vertex="1" parent="lIQEyv82AW77uc3gjlRO-74">
          <mxGeometry x="640" y="290" width="100" height="50" as="geometry" />
        </mxCell>
        <mxCell id="lIQEyv82AW77uc3gjlRO-36" value="&lt;font style=&quot;font-size: 18px&quot;&gt;E&lt;sub&gt;8&lt;/sub&gt;&lt;/font&gt;" style="rounded=0;whiteSpace=wrap;html=1;fontSize=18;" vertex="1" parent="lIQEyv82AW77uc3gjlRO-74">
          <mxGeometry x="750" y="290" width="60" height="50" as="geometry" />
        </mxCell>
        <mxCell id="lIQEyv82AW77uc3gjlRO-47" value="" style="shape=cross;whiteSpace=wrap;html=1;fontSize=18;fillColor=#000000;" vertex="1" parent="lIQEyv82AW77uc3gjlRO-74">
          <mxGeometry x="167.5" y="170" width="25" height="20" as="geometry" />
        </mxCell>
        <mxCell id="lIQEyv82AW77uc3gjlRO-50" value="" style="shape=cross;whiteSpace=wrap;html=1;fontSize=18;fillColor=#000000;" vertex="1" parent="lIQEyv82AW77uc3gjlRO-74">
          <mxGeometry x="237.5" y="170" width="25" height="20" as="geometry" />
        </mxCell>
        <mxCell id="lIQEyv82AW77uc3gjlRO-51" value="" style="shape=cross;whiteSpace=wrap;html=1;fontSize=18;fillColor=#000000;" vertex="1" parent="lIQEyv82AW77uc3gjlRO-74">
          <mxGeometry x="307.5" y="170" width="25" height="20" as="geometry" />
        </mxCell>
        <mxCell id="lIQEyv82AW77uc3gjlRO-55" value="" style="shape=cross;whiteSpace=wrap;html=1;fontSize=18;fillColor=#000000;" vertex="1" parent="lIQEyv82AW77uc3gjlRO-74">
          <mxGeometry x="377.5" y="170" width="25" height="20" as="geometry" />
        </mxCell>
        <mxCell id="lIQEyv82AW77uc3gjlRO-56" value="" style="shape=cross;whiteSpace=wrap;html=1;fontSize=18;fillColor=#000000;" vertex="1" parent="lIQEyv82AW77uc3gjlRO-74">
          <mxGeometry x="447.5" y="170" width="25" height="20" as="geometry" />
        </mxCell>
        <mxCell id="lIQEyv82AW77uc3gjlRO-57" value="" style="shape=cross;whiteSpace=wrap;html=1;fontSize=18;fillColor=#000000;" vertex="1" parent="lIQEyv82AW77uc3gjlRO-74">
          <mxGeometry x="517.5" y="170" width="25" height="20" as="geometry" />
        </mxCell>
        <mxCell id="lIQEyv82AW77uc3gjlRO-58" value="" style="shape=cross;whiteSpace=wrap;html=1;fontSize=18;fillColor=#000000;" vertex="1" parent="lIQEyv82AW77uc3gjlRO-74">
          <mxGeometry x="587.5" y="170" width="25" height="20" as="geometry" />
        </mxCell>
        <mxCell id="lIQEyv82AW77uc3gjlRO-59" value="" style="shape=cross;whiteSpace=wrap;html=1;fontSize=18;fillColor=#000000;" vertex="1" parent="lIQEyv82AW77uc3gjlRO-74">
          <mxGeometry x="677.5" y="170" width="25" height="20" as="geometry" />
        </mxCell>
        <mxCell id="lIQEyv82AW77uc3gjlRO-60" value="" style="shape=cross;whiteSpace=wrap;html=1;fontSize=18;fillColor=#000000;" vertex="1" parent="lIQEyv82AW77uc3gjlRO-74">
          <mxGeometry x="767.5" y="170" width="25" height="20" as="geometry" />
        </mxCell>
        <mxCell id="lIQEyv82AW77uc3gjlRO-61" value="" style="shape=cross;whiteSpace=wrap;html=1;fontSize=18;fillColor=#000000;" vertex="1" parent="lIQEyv82AW77uc3gjlRO-74">
          <mxGeometry x="167.5" y="260" width="25" height="20" as="geometry" />
        </mxCell>
        <mxCell id="lIQEyv82AW77uc3gjlRO-62" value="" style="shape=cross;whiteSpace=wrap;html=1;fontSize=18;fillColor=#000000;" vertex="1" parent="lIQEyv82AW77uc3gjlRO-74">
          <mxGeometry x="237.5" y="260" width="25" height="20" as="geometry" />
        </mxCell>
        <mxCell id="lIQEyv82AW77uc3gjlRO-63" value="" style="shape=cross;whiteSpace=wrap;html=1;fontSize=18;fillColor=#000000;" vertex="1" parent="lIQEyv82AW77uc3gjlRO-74">
          <mxGeometry x="307.5" y="260" width="25" height="20" as="geometry" />
        </mxCell>
        <mxCell id="lIQEyv82AW77uc3gjlRO-64" value="" style="shape=cross;whiteSpace=wrap;html=1;fontSize=18;fillColor=#000000;" vertex="1" parent="lIQEyv82AW77uc3gjlRO-74">
          <mxGeometry x="377.5" y="260" width="25" height="20" as="geometry" />
        </mxCell>
        <mxCell id="lIQEyv82AW77uc3gjlRO-65" value="" style="shape=cross;whiteSpace=wrap;html=1;fontSize=18;fillColor=#000000;" vertex="1" parent="lIQEyv82AW77uc3gjlRO-74">
          <mxGeometry x="447.5" y="260" width="25" height="20" as="geometry" />
        </mxCell>
        <mxCell id="lIQEyv82AW77uc3gjlRO-66" value="" style="shape=cross;whiteSpace=wrap;html=1;fontSize=18;fillColor=#000000;" vertex="1" parent="lIQEyv82AW77uc3gjlRO-74">
          <mxGeometry x="517.5" y="260" width="25" height="20" as="geometry" />
        </mxCell>
        <mxCell id="lIQEyv82AW77uc3gjlRO-67" value="" style="shape=cross;whiteSpace=wrap;html=1;fontSize=18;fillColor=#000000;" vertex="1" parent="lIQEyv82AW77uc3gjlRO-74">
          <mxGeometry x="587.5" y="260" width="25" height="20" as="geometry" />
        </mxCell>
        <mxCell id="lIQEyv82AW77uc3gjlRO-68" value="" style="shape=cross;whiteSpace=wrap;html=1;fontSize=18;fillColor=#000000;" vertex="1" parent="lIQEyv82AW77uc3gjlRO-74">
          <mxGeometry x="677.5" y="260" width="25" height="20" as="geometry" />
        </mxCell>
        <mxCell id="lIQEyv82AW77uc3gjlRO-69" value="" style="shape=cross;whiteSpace=wrap;html=1;fontSize=18;fillColor=#000000;" vertex="1" parent="lIQEyv82AW77uc3gjlRO-74">
          <mxGeometry x="767.5" y="260" width="25" height="20" as="geometry" />
        </mxCell>
        <mxCell id="lIQEyv82AW77uc3gjlRO-70" value="&lt;font style=&quot;font-size: 20px;&quot;&gt;&lt;span style=&quot;font-size: 20px;&quot;&gt;Input&lt;/span&gt;&lt;/font&gt;" style="text;html=1;align=center;verticalAlign=middle;resizable=0;points=[];autosize=1;fontSize=20;fontColor=#000000;fontStyle=0" vertex="1" parent="lIQEyv82AW77uc3gjlRO-74">
          <mxGeometry x="35" y="10" width="60" height="30" as="geometry" />
        </mxCell>
        <mxCell id="lIQEyv82AW77uc3gjlRO-71" value="&lt;font style=&quot;font-size: 20px;&quot;&gt;&lt;span style=&quot;font-size: 20px;&quot;&gt;Token&lt;br style=&quot;font-size: 20px;&quot;&gt;Embeddings&lt;br style=&quot;font-size: 20px;&quot;&gt;&lt;/span&gt;&lt;/font&gt;" style="text;html=1;align=center;verticalAlign=middle;resizable=0;points=[];autosize=1;fontSize=20;fontColor=#000000;fontStyle=0" vertex="1" parent="lIQEyv82AW77uc3gjlRO-74">
          <mxGeometry y="110" width="130" height="50" as="geometry" />
        </mxCell>
        <mxCell id="lIQEyv82AW77uc3gjlRO-72" value="&lt;font style=&quot;font-size: 20px;&quot;&gt;&lt;span style=&quot;font-size: 20px;&quot;&gt;Segment&lt;br style=&quot;font-size: 20px;&quot;&gt;Embeddings&lt;br style=&quot;font-size: 20px;&quot;&gt;&lt;/span&gt;&lt;/font&gt;" style="text;html=1;align=center;verticalAlign=middle;resizable=0;points=[];autosize=1;fontSize=20;fontColor=#000000;fontStyle=0" vertex="1" parent="lIQEyv82AW77uc3gjlRO-74">
          <mxGeometry y="200" width="130" height="50" as="geometry" />
        </mxCell>
        <mxCell id="lIQEyv82AW77uc3gjlRO-73" value="&lt;font style=&quot;font-size: 20px;&quot;&gt;&lt;span style=&quot;font-size: 20px;&quot;&gt;Position&lt;br style=&quot;font-size: 20px;&quot;&gt;Embeddings&lt;br style=&quot;font-size: 20px;&quot;&gt;&lt;/span&gt;&lt;/font&gt;" style="text;html=1;align=center;verticalAlign=middle;resizable=0;points=[];autosize=1;fontSize=20;fontColor=#000000;fontStyle=0" vertex="1" parent="lIQEyv82AW77uc3gjlRO-74">
          <mxGeometry y="290" width="130" height="50" as="geometry" />
        </mxCell>
      </root>
    </mxGraphModel>
  </diagram>
</mxfile>
